<?xml version="1.0" encoding="UTF-8"?>
<svg width="63px" height="74px" viewBox="0 0 63 74" version="1.1" xmlns="http://www.w3.org/2000/svg" xmlns:xlink="http://www.w3.org/1999/xlink">
    <title>编组 2</title>
    <defs>
        <linearGradient x1="7.08126034%" y1="56.5831606%" x2="80.4779857%" y2="43.9632559%" id="linearGradient-1">
            <stop stop-color="#20F88D" offset="0%"></stop>
            <stop stop-color="#0EEFD3" offset="100%"></stop>
        </linearGradient>
        <linearGradient x1="7.08126034%" y1="61.8220927%" x2="80.4779857%" y2="39.1591665%" id="linearGradient-2">
            <stop stop-color="#20F88D" offset="0%"></stop>
            <stop stop-color="#0EEFD3" offset="100%"></stop>
        </linearGradient>
        <linearGradient x1="0%" y1="62.4856772%" x2="100%" y2="50%" id="linearGradient-3">
            <stop stop-color="#FF8989" offset="0%"></stop>
            <stop stop-color="#FD8D51" offset="100%"></stop>
        </linearGradient>
        <linearGradient x1="7.08126034%" y1="56.6532881%" x2="80.4779857%" y2="43.8989492%" id="linearGradient-4">
            <stop stop-color="#20F88D" offset="0%"></stop>
            <stop stop-color="#0EEFD3" offset="100%"></stop>
        </linearGradient>
        <linearGradient x1="8.58261691%" y1="73.0237902%" x2="79.4118238%" y2="28.8872342%" id="linearGradient-5">
            <stop stop-color="#20F88D" offset="0%"></stop>
            <stop stop-color="#0EEFD3" offset="100%"></stop>
        </linearGradient>
        <path d="M22.7215459,0.394652386 C26.219439,-0.138749658 29.6276285,-0.512883227 30.8445731,1.91535105 C31.7070492,3.63629565 29.3316572,7.47149502 28.6816802,12.0626774 C28.5950045,12.6749206 28.560026,13.2678123 28.5539739,13.8397907 L28.5536316,14.1804556 C28.5587001,14.8003613 28.5932589,15.3945837 28.6270004,15.9610439 L28.6451416,16.2672565 C28.8493917,19.7695781 28.8028229,22.1565094 20.942244,22.9092432 C19.4179053,24.2054194 17.3276774,25.8017884 14.5805523,27.8624421 C7.59910761,31.5873285 6.04235627,33.4562256 2.40129445,28.9445947 C-0.716647929,25.0811597 -0.626608676,23.0323929 1.68317751,21.2250977 C2.87334959,20.293846 4.52643653,20.0223537 5.9270891,20.2870633 C4.6657413,18.6890089 4.47401292,16.4711303 4.47401292,13.7671162 C4.47401292,7.44600793 10.8001277,0.984469182 17.5465094,0.984469182 C18.9413606,0.984469182 20.5450912,0.731568053 22.1538657,0.482128642 Z" id="path-6"></path>
        <linearGradient x1="7.08126034%" y1="55.8420133%" x2="80.4779857%" y2="44.6428865%" id="linearGradient-8">
            <stop stop-color="#20F88D" offset="0%"></stop>
            <stop stop-color="#0EEFD3" offset="100%"></stop>
        </linearGradient>
    </defs>
    <g id="icon" stroke="none" stroke-width="1" fill="none" fill-rule="evenodd">
        <g id="画板" transform="translate(-1116.000000, -78.000000)">
            <g id="编组-7" transform="translate(333.000000, 80.000000)">
                <g id="编组-2" transform="translate(785.000000, 0.000000)">
                    <path d="M31.2099215,64.5748293 C41.6464404,64.5748293 44.6306393,64.5748293 44.6306393,59.9914231 C44.6306393,55.4080168 40.3575375,53.7484335 33.823661,53.7484335 C31.7075221,53.7483927 29.8807548,53.7255571 26.8702407,57.5001985 C29.5832995,53.2558109 25.6067216,52.141156 24.0652816,52.141156 C22.5238415,52.141156 21.353694,53.2558109 21.353694,59.3698322 C21.353694,65.1071862 24.643278,64.5748293 31.2099215,64.5748293 Z" id="椭圆形" stroke="#000000" stroke-width="2.048" fill="url(#linearGradient-1)" stroke-linecap="round" stroke-linejoin="round" transform="translate(32.992167, 58.364514) rotate(-90.000000) translate(-32.992167, -58.364514) "></path>
                    <g id="编组-4备份-3" transform="translate(3.097118, 0.000000)">
                        <g id="编组-2备份" transform="translate(27.950369, 20.715281) rotate(-3.000000) translate(-27.950369, -20.715281) translate(0.974683, 1.385307)">
                            <g id="编组-11" transform="translate(0.000000, 0.000000)">
                                <path d="M36.1372385,2.71241367e-14 C41.478124,2.71241367e-14 45.8077672,4.32716192 45.8077672,9.66498667 C45.8077672,10.0462106 45.7856828,10.4222795 45.7427231,10.791985 C51.2012136,14.2746778 53.9513702,19.2615762 53.9513702,24.2102829 C53.9513702,33.2003035 41.8739446,38.6599467 26.9756851,38.6599467 C12.0774256,38.6599467 5.25998312e-14,33.2003035 5.25998312e-14,24.2102829 C5.25998312e-14,19.2612765 2.75048967,14.2740739 8.20936628,10.7905266 C8.16568736,10.4222795 8.14360305,10.0462106 8.14360305,9.66498667 C8.14360305,4.32716192 12.4732462,-6.62664328e-15 17.8141317,-6.62664328e-15 C21.8972905,-6.62664328e-15 25.3894034,2.52911845 26.8076864,6.10542116 L26.9756851,6.10420211 C27.032228,6.10420211 27.0886828,6.10429307 27.1450496,6.10447471 C28.5619668,2.52911845 32.0540797,2.71241367e-14 36.1372385,2.71241367e-14 Z" id="形状结合" stroke="#000000" stroke-width="2.048" fill="url(#linearGradient-2)" stroke-linecap="round" stroke-linejoin="round"></path>
                                <g id="编组" transform="translate(15.269256, 8.647620)">
                                    <ellipse id="椭圆形" fill="#000000" cx="3.56282633" cy="3.56078456" rx="3.56282633" ry="3.56078456"></ellipse>
                                    <ellipse id="椭圆形备份-6" fill="#000000" cx="19.8500324" cy="3.56078456" rx="3.56282633" ry="3.56078456"></ellipse>
                                    <circle id="椭圆形" fill="#FFFFFF" cx="19.0013705" cy="1.94766404" r="1"></circle>
                                    <circle id="椭圆形备份-2" fill="#FFFFFF" cx="2.97096195" cy="2.10891828" r="1"></circle>
                                </g>
                                <path d="M24.5059301,15.8263507 C24.505608,16.9504255 25.4165895,17.861407 26.5406642,17.8610849" id="路径" stroke="#000000" stroke-width="1.024" stroke-linecap="round" stroke-linejoin="round" transform="translate(25.523297, 16.843718) rotate(45.000000) translate(-25.523297, -16.843718) "></path>
                                <ellipse id="椭圆形" fill="url(#linearGradient-3)" cx="11.1974542" cy="19.0756316" rx="3.56282633" ry="1.78039228"></ellipse>
                                <ellipse id="椭圆形备份-7" fill="url(#linearGradient-3)" cx="42.753916" cy="19.0756316" rx="3.56282633" ry="1.78039228"></ellipse>
                            </g>
                        </g>
                        <ellipse id="椭圆形备份-5" fill-opacity="0.6" fill="#F7FFF4" transform="translate(14.208038, 6.472142) rotate(34.000000) translate(-14.208038, -6.472142) " cx="14.2080384" cy="6.47214231" rx="1" ry="1.52632415"></ellipse>
                        <ellipse id="椭圆形备份-9" fill-opacity="0.6" fill="#F7FFF4" transform="translate(32.022170, 6.472142) rotate(34.000000) translate(-32.022170, -6.472142) " cx="32.02217" cy="6.47214231" rx="1" ry="1.52632415"></ellipse>
                    </g>
                    <path d="M18.4926989,43.27267 C25.7362029,45.1587622 36.9666236,43.3555151 34.5536186,38.7963985 C32.1406135,34.2372818 32.4449618,37.2474412 25.2769312,37.2474412 C18.1089007,37.2474412 19.2338157,30.1022657 13.9343638,31.4016585 C8.63491188,32.7010512 11.249195,41.3865778 18.4926989,43.27267 Z" id="椭圆形备份-8" stroke="#000000" stroke-width="2.048" fill="url(#linearGradient-4)" stroke-linecap="round" stroke-linejoin="round"></path>
                    <path d="M16.285456,23.256948 C16.8475877,23.2571091 17.3032453,23.7127667 17.3034064,24.2748984 L17.3063232,34.4514854 C17.3064842,35.0132007 16.8512545,35.4686914 16.2895392,35.4688524 C16.2893449,35.4688525 16.2891505,35.4688525 16.2889562,35.4688524 C15.7268245,35.4686913 15.2711669,35.0130337 15.2710058,34.450902 L15.268089,24.274315 C15.267928,23.7125997 15.7231577,23.257109 16.284873,23.256948 C16.2850673,23.2569479 16.2852617,23.2569479 16.285456,23.256948 Z" id="矩形" fill="#000000" transform="translate(16.287206, 29.362900) rotate(-45.000000) translate(-16.287206, -29.362900) "></path>
                    <ellipse id="椭圆形" stroke="#000000" stroke-width="2.048" fill-opacity="0.8" fill="#FFFFFF" stroke-linecap="round" stroke-linejoin="round" cx="8.14360305" cy="18.6805465" rx="8.14360305" ry="8.13893614"></ellipse>
                    <g id="椭圆形" transform="translate(11.465077, 36.517367)">
                        <mask id="mask-7" fill="white">
                            <use xlink:href="#path-6"></use>
                        </mask>
                        <use id="蒙版" fill="url(#linearGradient-5)" xlink:href="#path-6"></use>
                        <path d="M6.52892962,18.9037502 C10.1652606,18.9037502 12.900697,17.5580037 12.900697,13.5720553 C12.900697,9.58610689 9.92720558,5.16929544 6.44936833,5.16929544 C2.97153108,5.16929544 -0.267622307,9.58610689 -0.267622307,13.5720553 C-0.267622307,17.5580037 2.89259864,18.9037502 6.52892962,18.9037502 Z" fill="#FBFFFE" mask="url(#mask-7)"></path>
                    </g>
                    <path d="M29.2175253,38.6166347 C33.8123294,38.6166347 40.4677875,31.2001116 42.3096496,35.4002332 C43.1721257,37.3669955 40.7967337,41.7500101 40.1467567,46.9969916 C40.060081,47.6966868 40.0251025,48.3742665 40.0190504,49.0279456 L40.0187081,49.4172707 C40.0565486,54.7065339 41.7381964,58.3597227 32.450921,59.3880683 C30.923329,60.6919686 28.8193079,62.2992371 26.0456288,64.3798093 C19.0641841,68.1046957 17.5074328,69.9735928 13.866371,65.4619618 C10.7484286,61.5985269 10.8384678,59.5497601 13.148254,57.7424649 C14.1984317,56.920752 15.6090279,56.6127179 16.8885951,56.7334781 C16.0770503,55.2958867 15.9390894,53.3029649 15.9390894,50.6815923 C15.9390894,43.4575845 22.4711436,38.6166347 29.2175253,38.6166347 Z" id="蒙版" stroke="#000000" stroke-width="2.048" stroke-linecap="round" stroke-linejoin="round"></path>
                    <path d="M25.1093764,42.255303 C32.3528804,44.1413951 44.5813462,38.1226745 41.986986,34.8057622 C39.3926257,31.4888498 39.0616392,36.2300742 31.8936087,36.2300742 C24.7255782,36.2300742 25.8504932,29.0848986 20.5510413,30.3842914 C15.2515894,31.6836842 17.8658725,40.3692108 25.1093764,42.255303 Z" id="椭圆形" stroke="#000000" stroke-width="2.048" fill="url(#linearGradient-8)" stroke-linecap="round" stroke-linejoin="round"></path>
                </g>
            </g>
        </g>
    </g>
</svg>