<svg viewBox="0 0 400 300" fill="none" xmlns="http://www.w3.org/2000/svg"><path opacity=".302" d="M85.395 115.558c10.165-1.652 14.28-2.895 24.204-12.546 9.924-9.651 19.987 4.43 34.912-1.224 14.925-5.653 16.289-12.498 39.117 8.469 10.523 8.911 18.892 5.383 24.05 8.911 3.438 2.351 6.753 8.149 9.943 17.391H85.395c-10.527-3.697-15.791-6.768-15.791-9.212 0-3.666 5.627-10.138 15.791-11.789Z" fill="url(#a)"/><path opacity=".302" d="M228.96 141.301c7.866-1.221 11.049-2.139 18.729-9.273 7.679-7.134 15.466 3.274 27.015-.905 11.549-4.178 12.605-9.237 30.269 6.26 8.143 6.586 14.619 3.979 18.61 6.586 2.661 1.738 5.226 6.023 7.694 12.855H228.96c-8.147-2.733-12.22-5.003-12.22-6.809 0-2.71 4.354-7.494 12.22-8.714Z" fill="url(#b)"/><path d="M143.391 73.124h77.176a.78.78 0 0 1 .78.779v90.031c0 5.739-4.653 10.391-10.391 10.391H144.17a.78.78 0 0 1-.779-.779V73.124Z" fill="url(#c)"/><path fill-rule="evenodd" clip-rule="evenodd" d="M165.286 146.792h25.691v19.122h-25.223l-.468-19.122Z" fill="#E9E9EF"/><path d="M200.058 164.974a9.35 9.35 0 0 0 8.837 9.337c-.17.01-.341.014-.513.014h-71.554c-5.739 0-10.391-4.652-10.391-10.391v-8.212h54.967a9.299 9.299 0 0 1 9.228-8.929l.074-.001a9.352 9.352 0 0 1 9.342 8.93h.01v9.252Z" fill="url(#d)"/><path d="M124.458 146.792h56.554a.78.78 0 0 1 .78.78v63.349a8.458 8.458 0 0 1-8.458 8.458h-56.409a.78.78 0 0 1-.78-.779v-63.495a8.313 8.313 0 0 1 8.313-8.313Z" fill="url(#e)"/><path d="M164.38 203.482v8.015a7.882 7.882 0 0 0 7.882 7.882H116.166c-8.198 0-14.844-6.646-14.844-14.844v-1.053h63.058Z" fill="url(#f)"/><path fill-rule="evenodd" clip-rule="evenodd" d="M271.131 201.147c.952 0 1.723.771 1.723 1.723v14.34a1.722 1.722 0 1 1-3.446 0v-14.34c0-.952.772-1.723 1.723-1.723Z" fill="#F0F0F3" fill-opacity=".9"/><path fill-rule="evenodd" clip-rule="evenodd" d="M267.598 179.925c-3.201 6.646-14.221 27.028 1.221 29.31 15.441 2.282 14.752-11.285 12.044-16.139-2.708-4.855-5.766-7.574-5.766-13.171 0-5.597-4.299-6.645-7.499 0Z" fill="url(#g)"/><path fill-rule="evenodd" clip-rule="evenodd" d="M299.006 194.552h.167c.473 0 .856.383.856.856v9.018a.856.856 0 0 1-.856.856h-.167a.856.856 0 0 1-.856-.856v-9.018c0-.473.383-.856.856-.856Z" fill="#F0F0F3" fill-opacity=".9"/><path fill-rule="evenodd" clip-rule="evenodd" d="M296.955 180.858c-2.09 4.174-9.286 16.977.797 18.41 10.084 1.433 9.634-7.088 7.865-10.137-1.768-3.05-3.765-4.757-3.765-8.273s-2.807-4.174-4.897 0Z" fill="url(#h)"/><path fill-rule="evenodd" clip-rule="evenodd" d="M228.651 129.352c-1.587-.418-3.467-.203-3.592.982-.083.79 1.003 1.011 3.26.665 3.542 2.724 6.589 5.139 9.14 7.245 3.828 3.158 4.079 1.314 2.329-.328-1.75-1.641.093-3.696-.821-3.891-5.82-2.837-9.258-4.395-10.316-4.673Z" fill="#FFB8A3"/><path d="m224.925 118.154-1.283-.741 2.697-.921a.651.651 0 0 0 .418-.724l-.103-.546a.53.53 0 0 0-.676-.394l-3.402 1.161-.693-3.523a.528.528 0 0 0-.678-.391l-.52.183a.65.65 0 0 0-.417.722l.551 2.803-1.286-.742c-.273-.158-.629-.048-.796.241l-.301.521c-.167.29-.084.653.189.81l1.957 1.13-.604 1.047-1.958-1.13c-.273-.157-.629-.047-.796.242l-.302.523c-.166.289-.083.651.19.809l1.957 1.13-.903 1.564c-.167.29-.082.654.189.81l.493.285c.271.156.629.048.796-.242l.903-1.564 1.958 1.13c.272.158.628.049.795-.24l.302-.523c.167-.289.084-.653-.189-.81l-1.957-1.13.604-1.048 1.958 1.131c.272.157.628.048.796-.242l.3-.521c.167-.289.084-.652-.189-.81Zm7.795 3.306c.93-.087 1.214-.466 1.569-1.081l2.131-3.691c.685-1.187.334-2.68-.779-3.323l-17.318-9.999c-1.114-.642-2.582-.2-3.267.987l-2.132 3.691c-.355.615-.589 1.147-.126 1.942.334.507 1.034 1.818.304 3.083-.831 1.438-1.907 1.448-2.747 1.298l-.079-.003c-.936.058-1.441.762-1.614 1.062l-2.13 3.691c-.687 1.188-.336 2.682.777 3.325l17.319 9.998c1.113.643 2.582.2 3.268-.988l2.131-3.691c.461-.798.421-1.21.134-1.931-.813-1.341-.889-2.094-.312-3.092.575-.998 1.214-1.284 2.871-1.278Z" fill="url(#i)"/><path d="m224.942 118.441-1.283-.74 2.697-.922a.651.651 0 0 0 .418-.723l-.103-.547a.531.531 0 0 0-.677-.394l-3.402 1.161-.693-3.523a.527.527 0 0 0-.677-.391l-.52.183a.65.65 0 0 0-.417.723l.551 2.803-1.286-.743c-.273-.158-.629-.048-.796.241l-.301.521c-.168.29-.084.653.189.81l1.957 1.131-.604 1.047-1.958-1.13c-.273-.158-.629-.048-.796.241l-.302.523c-.167.289-.083.651.19.809l1.957 1.13-.903 1.564c-.167.29-.082.654.189.811l.493.284c.271.156.628.048.796-.242l.903-1.564 1.957 1.13c.273.158.629.049.796-.24l.302-.523c.166-.289.084-.652-.189-.81l-1.958-1.13.605-1.047 1.957 1.13c.273.157.629.048.796-.242l.301-.521c.167-.289.084-.652-.189-.81Z" fill="#fff"/><path d="M168.282 101.317h-48.458a.881.881 0 0 0-.881.881v4.406c0 .486.394.881.881.881h48.458a.882.882 0 0 0 .881-.881v-4.406a.882.882 0 0 0-.881-.881Z" fill="url(#j)"/><path fill-rule="evenodd" clip-rule="evenodd" d="M133.921 111.89h34.801a.88.88 0 0 1 .881.881v4.405a.88.88 0 0 1-.881.881h-34.801a.88.88 0 0 1-.881-.881v-4.405a.88.88 0 0 1 .881-.881Z" fill="url(#k)"/><path d="M137.445 161.229H125.11a.881.881 0 0 0-.881.881v12.335a.88.88 0 0 0 .881.881h12.335a.881.881 0 0 0 .881-.881V162.11a.882.882 0 0 0-.881-.881Z" fill="url(#l)"/><path d="M146.256 161.229h28.193c.487 0 .881.395.881.881v2.643a.88.88 0 0 1-.881.881h-28.193a.88.88 0 0 1-.881-.881v-2.643c0-.486.394-.881.881-.881Z" fill="url(#m)"/><path d="M146.256 170.921h28.193a.88.88 0 0 1 .881.881v2.643a.88.88 0 0 1-.881.881h-28.193a.88.88 0 0 1-.881-.881v-2.643a.88.88 0 0 1 .881-.881Z" fill="url(#n)"/><path d="M125.11 180.612h49.339c.487 0 .881.395.881.881v2.644a.881.881 0 0 1-.881.881H125.11a.881.881 0 0 1-.881-.881v-2.644c0-.486.394-.881.881-.881Z" fill="url(#o)"/><path d="m216.614 197.195-13.971 2.36M218.759 183.235l-13.473 2.223M232.221 178.786l-12.838 2.267M234.802 190.304l-17.165 3.45M238.326 201.758l-22.908 4.405M220.704 169.159l-13.656 2.202M226.872 163.872l-13.656 2.203M229.137 223.373l-19.446-69.145-10.572 66.472" stroke="#E0E0EA" stroke-width="1.762" stroke-linecap="round" stroke-linejoin="round"/><path d="m243.674 218.92-19.445-69.145-10.573 66.473" stroke="#E0E0EA" stroke-width="1.762" stroke-linecap="round" stroke-linejoin="round"/><path fill-rule="evenodd" clip-rule="evenodd" d="M237.595 123.3c-1.751 1.337-2.805 5.453-1.781 6.559.436.471 1.479 1.085 2.628 1.185-.276.506-.519.935-.731 1.288-.63 1.048-1.341 1.674-2.134 1.876l6.903 1.691c-.871-.978-1.323-1.932-1.356-2.864-.021-.602.119-1.532.422-2.793 1.454-.8 2.679-2.101 3.048-3.532.904-3.513-5.247-4.746-6.999-3.41Z" fill="url(#p)"/><path fill-rule="evenodd" clip-rule="evenodd" d="M240.964 131.668c2.403-2.167 4.43-4.626 4.599-5.83.113-.803-.152-1.421-.795-1.856.181-1.606-.771-2.656-2.856-3.149-.464-.11-1.254.153-1.699-.041-.796-.348-1.036-.52-1.614-.663-.76-.188-1.312.009-1.769.493-.561.595-.557 1.724.093 2.687.586.866 1.511.836 2.007 1.253.333.28.601 1.381.805 3.305l.296-.472c.659-.918 1.204-1.168 1.636-.751.431.417.398.903-.101 1.459-.724 1.157-1.12 1.928-1.187 2.311-.067.383.128.801.585 1.254Z" fill="#353564"/><path fill-rule="evenodd" clip-rule="evenodd" d="m228.298 136.171-6.55-.417c-1.718-2.031-2.799-3.712-3.246-5.044-.669-1.998 1.303-3.051-.972-4.875-2.274-1.824-1.11 7.369-.608 8.632.502 1.263 1.534 3.82 5.088 5.538 3.554 1.718 7.91-.077 8.48-.389l-2.192-3.445Z" fill="url(#q)"/><path fill-rule="evenodd" clip-rule="evenodd" d="M238.53 198.105c-1.72.933-2.891 1.35-3.515 1.253-.936-.146-1.571.791-.77 1.475.801.684 3.688.329 4.402.44.714.111 2.512.712 2.122-1.88-.259-1.729-.601-2.5-1.025-2.315l-1.107.183-.107.844ZM225.334 176.856c-1.42 1.345-2.444 2.052-3.072 2.12-.941.101-1.312 1.17-.361 1.623.95.454 3.647-.637 4.365-.714.719-.077 2.611.037 1.564-2.365-.698-1.602-1.228-2.259-1.59-1.971l-1.021.463.115.844Z" fill="#3E3E6E"/><path fill-rule="evenodd" clip-rule="evenodd" d="M246.407 153.903c1.642 7.239-.848 10.218-7.47 8.938-9.933-1.919-13.664-6.177-12.646 3.233.678 6.273 1.024 9.55 1.038 9.831-1.926.732-2.889.672-2.889-.18 0-1.277-7.89-21.919-1.439-23.51 4.301-1.061 12.103-.499 23.406 1.688Z" fill="url(#r)"/><path fill-rule="evenodd" clip-rule="evenodd" d="M236.336 158.755s-.846 3.479-.758 9.972c.132 9.842 1.37 24.601 2.741 28.783.3-.044 1.122-.044 2.468 0 3.472-18.585 5.398-29.497 5.777-32.737.568-4.859.627-10.818-.63-11.269-4.145-1.487-9.598 3.32-9.598 5.251Z" fill="url(#s)"/><path fill-rule="evenodd" clip-rule="evenodd" d="M236.638 133.318c1.174.466 1.693 2.743 4.999.73.413-.057 5.808 1.744 4.817 6.472-.99 4.727 1.376 16.657 0 18.622-1.376 1.965-14.073 2.357-15.218-2.607-.763-3.31-.977-8.331-.641-15.063-2.823.676-4.438.933-4.844.771-.609-.242-.759-1.98-.759-3 0-1.021-.251-2.557.759-3.24 1.011-.683 9.712-3.151 10.887-2.685Z" fill="#5B5BEA"/><defs><linearGradient id="a" x1="143.612" y1="96.031" x2="143.612" y2="136.559" gradientUnits="userSpaceOnUse"><stop stop-color="#DCDCE4"/><stop offset="1" stop-color="#DEDEE6" stop-opacity="0"/></linearGradient><linearGradient id="b" x1="274.009" y1="126.868" x2="274.009" y2="156.824" gradientUnits="userSpaceOnUse"><stop stop-color="#DCDCE4"/><stop offset="1" stop-color="#DEDEE6" stop-opacity="0"/></linearGradient><linearGradient id="c" x1="186.895" y1="73.124" x2="186.895" y2="175.258" gradientUnits="userSpaceOnUse"><stop stop-color="#F0F0F5"/><stop offset="1" stop-color="#FAFAFC"/></linearGradient><linearGradient id="d" x1="167.666" y1="172.652" x2="167.666" y2="149.934" gradientUnits="userSpaceOnUse"><stop stop-color="#EEEEF8"/><stop offset="1" stop-color="#BDBDC8"/></linearGradient><linearGradient id="e" x1="148.969" y1="146.792" x2="148.969" y2="236.475" gradientUnits="userSpaceOnUse"><stop stop-color="#E9E9EF"/><stop offset="1" stop-color="#FAFAFC"/></linearGradient><linearGradient id="f" x1="136.792" y1="203.482" x2="136.792" y2="226.403" gradientUnits="userSpaceOnUse"><stop stop-color="#FAFAFB"/><stop offset="1" stop-color="#E3E3EF"/></linearGradient><linearGradient id="g" x1="271.586" y1="175.326" x2="271.586" y2="209.491" gradientUnits="userSpaceOnUse"><stop stop-color="#EBEBEE"/><stop offset="1" stop-color="#FCFCFD"/></linearGradient><linearGradient id="h" x1="299.56" y1="177.969" x2="299.56" y2="199.429" gradientUnits="userSpaceOnUse"><stop stop-color="#EBEBEE"/><stop offset="1" stop-color="#FCFCFD"/></linearGradient><linearGradient id="i" x1="223.807" y1="126.841" x2="219.581" y2="108.693" gradientUnits="userSpaceOnUse"><stop stop-color="#FAC251"/><stop offset="1" stop-color="#FFDE9B"/></linearGradient><linearGradient id="j" x1="145.301" y1="108.467" x2="145.301" y2="101.317" gradientUnits="userSpaceOnUse"><stop stop-color="#FDFDFF"/><stop offset="1" stop-color="#E7E7ED"/></linearGradient><linearGradient id="k" x1="152.23" y1="119.04" x2="152.23" y2="111.89" gradientUnits="userSpaceOnUse"><stop stop-color="#FDFDFF"/><stop offset="1" stop-color="#E7E7ED"/></linearGradient><linearGradient id="l" x1="131.277" y1="161.229" x2="131.277" y2="175.326" gradientUnits="userSpaceOnUse"><stop stop-color="#fff"/><stop offset="1" stop-color="#FAFAFC"/></linearGradient><linearGradient id="m" x1="160.352" y1="161.229" x2="160.352" y2="165.634" gradientUnits="userSpaceOnUse"><stop stop-color="#fff"/><stop offset="1" stop-color="#FAFAFC"/></linearGradient><linearGradient id="n" x1="160.352" y1="170.921" x2="160.352" y2="175.326" gradientUnits="userSpaceOnUse"><stop stop-color="#fff"/><stop offset="1" stop-color="#FAFAFC"/></linearGradient><linearGradient id="o" x1="149.78" y1="180.612" x2="149.78" y2="185.018" gradientUnits="userSpaceOnUse"><stop stop-color="#fff"/><stop offset="1" stop-color="#FAFAFC"/></linearGradient><linearGradient id="p" x1="238.764" y1="126.054" x2="240.378" y2="133.012" gradientUnits="userSpaceOnUse"><stop stop-color="#FFD2C4"/><stop offset="1" stop-color="#FFB8A3"/></linearGradient><linearGradient id="q" x1="230.688" y1="145.196" x2="214.292" y2="133.734" gradientUnits="userSpaceOnUse"><stop stop-color="#FFD2C4"/><stop offset="1" stop-color="#FFB8A3"/></linearGradient><linearGradient id="r" x1="226.556" y1="173.831" x2="232.868" y2="153.826" gradientUnits="userSpaceOnUse"><stop stop-color="#7878C3"/><stop offset="1" stop-color="#5C5CBB"/></linearGradient><linearGradient id="s" x1="241.058" y1="195.397" x2="244.109" y2="155.154" gradientUnits="userSpaceOnUse"><stop stop-color="#7878C3"/><stop offset="1" stop-color="#5C5CBB"/></linearGradient></defs></svg>