<svg width="72px" height="66px" viewBox="0 0 72 66" version="1.1" xmlns="http://www.w3.org/2000/svg" xmlns:xlink="http://www.w3.org/1999/xlink">
    <title>编组 12</title>
    <defs>
        <linearGradient x1="7.08126034%" y1="61.894126%" x2="80.4779857%" y2="39.0931122%" id="linearGradient-1">
            <stop stop-color="#20F88D" offset="0%"></stop>
            <stop stop-color="#0EEFD3" offset="100%"></stop>
        </linearGradient>
        <linearGradient x1="0%" y1="62.5617537%" x2="100%" y2="50%" id="linearGradient-2">
            <stop stop-color="#FF8989" offset="0%"></stop>
            <stop stop-color="#FD8D51" offset="100%"></stop>
        </linearGradient>
        <linearGradient x1="7.08126034%" y1="50.5247725%" x2="80.4779857%" y2="49.5187847%" id="linearGradient-3">
            <stop stop-color="#20F88D" offset="0%"></stop>
            <stop stop-color="#0EEFD3" offset="100%"></stop>
        </linearGradient>
    </defs>
    <g id="页面-2" stroke="none" stroke-width="1" fill="none" fill-rule="evenodd">
        <g id="编组-9备份" transform="translate(-9.000000, -11.000000)">
            <g id="编组-12" transform="translate(9.000000, 13.000000)">
                <g id="编组-8备份" transform="translate(3.531250, 0.000000)">
                    <g id="编组-2" fill="url(#linearGradient-1)" stroke="#000000" stroke-linecap="round" stroke-linejoin="round" stroke-width="2.4">
                        <path d="M42.8679245,0 C49.2035685,0 54.3396226,5.14872538 54.3396226,11.5 C54.3396226,11.95327 54.3134636,12.4004152 54.2625764,12.8400012 C60.7371555,16.9840564 64,22.9182002 64,28.8068947 C64,39.5037783 49.673112,46 32,46 C14.326888,46 0,39.5037783 0,28.8068947 C0,22.9182002 3.2628445,16.9840564 9.73858747,12.8391103 C9.6865364,12.4004152 9.66037736,11.95327 9.66037736,11.5 C9.66037736,5.14872538 14.7964315,0 21.1320755,0 C25.9755686,0 30.1179802,3.00909285 31.8005357,7.26416512 L32,7.26315789 C32.0667532,7.26315789 32.1334029,7.2632651 32.1999491,7.26347916 C33.8820198,3.00909285 38.0244314,0 42.8679245,0 Z" id="形状结合"></path>
                    </g>
                    <g id="编组" transform="translate(18.113208, 10.289474)" fill="#000000">
                        <ellipse id="椭圆形" cx="4.22641509" cy="4.23684211" rx="4.22641509" ry="4.23684211"></ellipse>
                        <ellipse id="椭圆形备份-6" cx="23.5471698" cy="4.23684211" rx="4.22641509" ry="4.23684211"></ellipse>
                    </g>
                    <g id="编组-3" transform="translate(27.169811, 23.000000)" stroke="#000000" stroke-linecap="round" stroke-linejoin="round" stroke-width="1.2">
                        <path d="M0,0 C0,1.33711045 1.08127457,2.42105263 2.41509434,2.42105263 C3.74891411,2.42105263 4.83018868,1.33711045 4.83018868,0" id="路径"></path>
                        <path d="M4.83018868,0 C4.83018868,1.33711045 5.91146325,2.42105263 7.24528302,2.42105263 C8.57910279,2.42105263 9.66037736,1.33711045 9.66037736,0" id="路径"></path>
                    </g>
                    <ellipse id="椭圆形" fill="url(#linearGradient-2)" cx="13.2830189" cy="22.6973684" rx="4.22641509" ry="2.11842105"></ellipse>
                    <ellipse id="椭圆形备份-7" fill="url(#linearGradient-2)" cx="50.7169811" cy="22.6973684" rx="4.22641509" ry="2.11842105"></ellipse>
                </g>
                <path d="M3.234375,63 C4.44270833,63 5.29166667,62.8177083 5.78125,62.453125 C6.27083333,62.0885417 6.515625,61.4322917 6.515625,60.484375 L6.515625,60.484375 L6.515625,59.484375 C6.515625,58.7864583 6.40104167,58.2682292 6.171875,57.9296875 C5.94270833,57.5911458 5.5,57.34375 4.84375,57.1875 C5.5,57.0416667 5.91666667,56.8177083 6.09375,56.515625 C6.23958333,56.265625 6.3125,55.7552083 6.3125,54.984375 C6.3125,54.046875 6.06510417,53.3567708 5.5703125,52.9140625 C5.07552083,52.4713542 4.31770833,52.25 3.296875,52.25 L3.296875,52.25 L0,52.25 L0,63 L3.234375,63 Z M3.078125,56.46875 L2.796875,56.46875 L2.796875,54.09375 C3.171875,54.09375 3.41666667,54.1458333 3.53125,54.25 C3.64583333,54.3541667 3.703125,54.640625 3.703125,55.109375 C3.703125,55.7239583 3.66927083,56.1041667 3.6015625,56.25 C3.53385417,56.3958333 3.359375,56.46875 3.078125,56.46875 L3.078125,56.46875 Z M2.796875,61.140625 L2.796875,58.15625 C3.22395833,58.15625 3.48177083,58.2057292 3.5703125,58.3046875 C3.65885417,58.4036458 3.703125,58.6822917 3.703125,59.140625 L3.703125,59.140625 L3.703125,60.15625 C3.703125,60.59375 3.6484375,60.8671875 3.5390625,60.9765625 C3.4296875,61.0859375 3.18229167,61.140625 2.796875,61.140625 L2.796875,61.140625 Z M12.3125,63 L12.3125,60.859375 L10.28125,60.859375 L10.28125,58.484375 L12.03125,58.484375 L12.03125,56.4375 L10.28125,56.4375 L10.28125,54.390625 L12.140625,54.390625 L12.140625,52.25 L7.484375,52.25 L7.484375,63 L12.3125,63 Z M24.09375,63 L24.09375,58.484375 L25.828125,58.484375 L25.828125,56.4375 L24.09375,56.4375 L24.09375,54.390625 L26.03125,54.390625 L26.03125,52.25 L21.296875,52.25 L21.296875,63 L24.09375,63 Z M31.96875,63 L31.96875,60.859375 L29.9375,60.859375 L29.9375,58.484375 L31.6875,58.484375 L31.6875,56.4375 L29.9375,56.4375 L29.9375,54.390625 L31.796875,54.390625 L31.796875,52.25 L27.140625,52.25 L27.140625,63 L31.96875,63 Z M35.361084,63 L35.515625,61.0625 L36.5390625,61.0625 L36.6809082,63 L39.5625,63 L37.96875,52.25 L33.921875,52.25 L32.5,63 L35.361084,63 Z M36.484375,59.140625 L35.515625,59.140625 C35.578125,58.546875 35.65625,57.875 35.75,57.125 C35.8854167,55.96875 35.9895833,55.140625 36.0625,54.640625 C36.0625,54.9010417 36.109375,55.5182292 36.203125,56.4921875 C36.296875,57.4661458 36.390625,58.3489583 36.484375,59.140625 L36.484375,59.140625 Z M43.09375,63 L43.09375,58.15625 C43.4479167,58.15625 43.6770833,58.21875 43.78125,58.34375 C43.8854167,58.46875 43.9375,58.7239583 43.9375,59.109375 L43.9375,59.109375 L43.9375,63 L46.53125,63 L46.53125,59.78125 C46.53125,59 46.453125,58.46875 46.296875,58.1875 C46.0989583,57.8333333 45.6666667,57.5677083 45,57.390625 C45.65625,57.3177083 46.0833333,57.1197917 46.28125,56.796875 C46.4479167,56.5260417 46.53125,55.984375 46.53125,55.171875 C46.53125,53.8072917 46.1614583,52.9427083 45.421875,52.578125 C44.9739583,52.359375 43.9270833,52.25 42.28125,52.25 L42.28125,52.25 L40.296875,52.25 L40.296875,63 L43.09375,63 Z M43.09375,56.46875 L43.09375,54.09375 L43.21875,54.09375 C43.5208333,54.09375 43.7239583,54.171875 43.828125,54.328125 C43.9010417,54.4427083 43.9375,54.640625 43.9375,54.921875 L43.9375,54.921875 L43.9375,55.515625 C43.9375,55.9114583 43.8880208,56.1692708 43.7890625,56.2890625 C43.6901042,56.4088542 43.4583333,56.46875 43.09375,56.46875 L43.09375,56.46875 Z M52.78125,63 L52.78125,60.859375 L50.25,60.859375 L50.25,52.25 L47.453125,52.25 L47.453125,63 L52.78125,63 Z M58.484375,63 L58.484375,60.859375 L56.453125,60.859375 L56.453125,58.484375 L58.203125,58.484375 L58.203125,56.4375 L56.453125,56.4375 L56.453125,54.390625 L58.3125,54.390625 L58.3125,52.25 L53.65625,52.25 L53.65625,63 L58.484375,63 Z M62.21875,63.046875 C62.7395833,63.046875 63.1875,62.9973958 63.5625,62.8984375 C63.9375,62.7994792 64.2291667,62.6354167 64.4375,62.40625 C64.6458333,62.1770833 64.7942708,61.9296875 64.8828125,61.6640625 C64.9713542,61.3984375 65.015625,60.9583333 65.015625,60.34375 C65.015625,59.3854167 64.9166667,58.6822917 64.71875,58.234375 C64.46875,57.6614583 63.9427083,57.1197917 63.140625,56.609375 C62.4114583,56.140625 61.9765625,55.8125 61.8359375,55.625 C61.6953125,55.4375 61.625,55.125 61.625,54.6875 C61.625,54.125 61.7760417,53.84375 62.078125,53.84375 C62.296875,53.84375 62.4270833,53.9635417 62.46875,54.203125 C62.4791667,54.265625 62.484375,54.4375 62.484375,54.71875 L62.484375,54.71875 L62.484375,55.203125 L64.8125,55.203125 L64.8125,55.0625 C64.8125,54.4479167 64.7916667,54.0260417 64.75,53.796875 C64.6770833,53.4114583 64.5260417,53.09375 64.296875,52.84375 C64.0677083,52.59375 63.7786458,52.4322917 63.4296875,52.359375 C63.0807292,52.2864583 62.6041667,52.25 62,52.25 C61.375,52.25 60.875,52.3125 60.5,52.4375 C60.125,52.5625 59.8333333,52.796875 59.625,53.140625 C59.4791667,53.4010417 59.3828125,53.6770833 59.3359375,53.96875 C59.2890625,54.2604167 59.265625,54.6041667 59.265625,55 C59.265625,56.1145833 59.5729167,56.9583333 60.1875,57.53125 C60.5520833,57.875 61.21875,58.3958333 62.1875,59.09375 C62.3958333,59.3020833 62.5208333,59.5 62.5625,59.6875 C62.6041667,59.875 62.625,60.15625 62.625,60.53125 C62.625,61.1145833 62.4583333,61.40625 62.125,61.40625 C61.9270833,61.40625 61.8046875,61.3385417 61.7578125,61.203125 C61.7109375,61.0677083 61.6875,60.8177083 61.6875,60.453125 L61.6875,60.453125 L61.6875,59.453125 L59.34375,59.453125 L59.34375,59.859375 C59.34375,60.5989583 59.3932292,61.1380208 59.4921875,61.4765625 C59.5911458,61.8151042 59.7473958,62.109375 59.9609375,62.359375 C60.1744792,62.609375 60.4635417,62.7864583 60.828125,62.890625 C61.1927083,62.9947917 61.65625,63.046875 62.21875,63.046875 Z M68.71875,63.046875 C69.2395833,63.046875 69.6875,62.9973958 70.0625,62.8984375 C70.4375,62.7994792 70.7291667,62.6354167 70.9375,62.40625 C71.1458333,62.1770833 71.2942708,61.9296875 71.3828125,61.6640625 C71.4713542,61.3984375 71.515625,60.9583333 71.515625,60.34375 C71.515625,59.3854167 71.4166667,58.6822917 71.21875,58.234375 C70.96875,57.6614583 70.4427083,57.1197917 69.640625,56.609375 C68.9114583,56.140625 68.4765625,55.8125 68.3359375,55.625 C68.1953125,55.4375 68.125,55.125 68.125,54.6875 C68.125,54.125 68.2760417,53.84375 68.578125,53.84375 C68.796875,53.84375 68.9270833,53.9635417 68.96875,54.203125 C68.9791667,54.265625 68.984375,54.4375 68.984375,54.71875 L68.984375,54.71875 L68.984375,55.203125 L71.3125,55.203125 L71.3125,55.0625 C71.3125,54.4479167 71.2916667,54.0260417 71.25,53.796875 C71.1770833,53.4114583 71.0260417,53.09375 70.796875,52.84375 C70.5677083,52.59375 70.2786458,52.4322917 69.9296875,52.359375 C69.5807292,52.2864583 69.1041667,52.25 68.5,52.25 C67.875,52.25 67.375,52.3125 67,52.4375 C66.625,52.5625 66.3333333,52.796875 66.125,53.140625 C65.9791667,53.4010417 65.8828125,53.6770833 65.8359375,53.96875 C65.7890625,54.2604167 65.765625,54.6041667 65.765625,55 C65.765625,56.1145833 66.0729167,56.9583333 66.6875,57.53125 C67.0520833,57.875 67.71875,58.3958333 68.6875,59.09375 C68.8958333,59.3020833 69.0208333,59.5 69.0625,59.6875 C69.1041667,59.875 69.125,60.15625 69.125,60.53125 C69.125,61.1145833 68.9583333,61.40625 68.625,61.40625 C68.4270833,61.40625 68.3046875,61.3385417 68.2578125,61.203125 C68.2109375,61.0677083 68.1875,60.8177083 68.1875,60.453125 L68.1875,60.453125 L68.1875,59.453125 L65.84375,59.453125 L65.84375,59.859375 C65.84375,60.5989583 65.8932292,61.1380208 65.9921875,61.4765625 C66.0911458,61.8151042 66.2473958,62.109375 66.4609375,62.359375 C66.6744792,62.609375 66.9635417,62.7864583 67.328125,62.890625 C67.6927083,62.9947917 68.15625,63.046875 68.71875,63.046875 Z" id="BEFEARLESS" fill="url(#linearGradient-3)"></path>
            </g>
        </g>
    </g>
</svg>